{
    "asset": {
        "generator": "FBX2glTF v0.9.7",
        "version": "2.0"
    },
    "scene": 0,
    "buffers": [
        {
            "byteLength": 2328,
            "uri": "buffer.bin"
        }
    ],
    "bufferViews": [
        {
            "buffer": 0,
            "byteLength": 264,
            "byteOffset": 0,
            "target": 34963
        },
        {
            "buffer": 0,
            "byteLength": 516,
            "byteOffset": 264,
            "target": 34962
        },
        {
            "buffer": 0,
            "byteLength": 516,
            "byteOffset": 780,
            "target": 34962
        },
        {
            "buffer": 0,
            "byteLength": 688,
            "byteOffset": 1296,
            "target": 34962
        },
        {
            "buffer": 0,
            "byteLength": 344,
            "byteOffset": 1984,
            "target": 34962
        }
    ],
    "scenes": [
        {
            "name": "Root Scene",
            "nodes": [
                0
            ]
        }
    ],
    "accessors": [
        {
            "componentType": 5123,
            "type": "SCALAR",
            "count": 132,
            "bufferView": 0,
            "byteOffset": 0
        },
        {
            "componentType": 5126,
            "type": "VEC3",
            "count": 43,
            "bufferView": 1,
            "byteOffset": 0,
            "min": [
                -0.5,
                -0.5,
                -0.5
            ],
            "max": [
                0.5,
                0.5,
                0.5
            ]
        },
        {
            "componentType": 5126,
            "type": "VEC3",
            "count": 43,
            "bufferView": 2,
            "byteOffset": 0
        },
        {
            "componentType": 5126,
            "type": "VEC4",
            "count": 43,
            "bufferView": 3,
            "byteOffset": 0
        },
        {
            "componentType": 5126,
            "type": "VEC2",
            "count": 43,
            "bufferView": 4,
            "byteOffset": 0
        }
    ],
    "images": [
        {
            "name": "ice 3 nrm.tga",
            "uri": "ice 3 nrm.tga"
        },
        {
            "name": "cube ice 3.tga",
            "uri": "cube ice 3.tga"
        }
    ],
    "samplers": [
        {}
    ],
    "textures": [
        {
            "name": "NormalMap_Texture",
            "sampler": 0,
            "source": 0
        },
        {
            "name": "DiffuseColor_Texture",
            "sampler": 0,
            "source": 1
        }
    ],
    "materials": [
        {
            "name": "Ice_3",
            "alphaMode": "OPAQUE",
            "extras": {
                "fromFBX": {
                    "shadingModel": "Lambert",
                    "isTruePBR": false
                }
            },
            "normalTexture": {
                "index": 0,
                "texCoord": 0
            },
            "pbrMetallicRoughness": {
                "baseColorTexture": {
                    "index": 1,
                    "texCoord": 0
                },
                "baseColorFactor": [
                    1.0,
                    1.0,
                    1.0,
                    1.0
                ],
                "metallicFactor": 0.200000002980232,
                "roughnessFactor": 0.800000011920929
            }
        }
    ],
    "meshes": [
        {
            "name": "Cube_Ice",
            "primitives": [
                {
                    "material": 0,
                    "mode": 4,
                    "attributes": {
                        "NORMAL": 2,
                        "POSITION": 1,
                        "TANGENT": 3,
                        "TEXCOORD_0": 4
                    },
                    "indices": 0
                }
            ]
        }
    ],
    "nodes": [
        {
            "name": "RootNode",
            "translation": [
                0.0,
                0.0,
                0.0
            ],
            "rotation": [
                0.0,
                0.0,
                0.0,
                1.0
            ],
            "scale": [
                1.0,
                1.0,
                1.0
            ],
            "children": [
                1
            ]
        },
        {
            "name": "Cube_Ice",
            "translation": [
                0.0,
                0.0,
                0.0
            ],
            "rotation": [
                6.1233163192426e-17,
                1.0,
                6.1233163192426e-17,
                -1.34489637275692e-05
            ],
            "scale": [
                1.0,
                1.0,
                1.0
            ],
            "mesh": 0
        }
    ]
}